<svg width="504" height="281" viewBox="0 0 504 281" fill="none" xmlns="http://www.w3.org/2000/svg">
    <mask id="mask0_1_30417" style="mask-type:alpha" maskUnits="userSpaceOnUse" x="0" y="0" width="504" height="281">
        <path d="M408.512 1.25251C314.759 11.221 181.878 29.8014 63.3542 62.7351C-2.97619 81.1894 -20.8999 166.363 31.609 210.905C87.7153 258.508 171.685 298.603 285.381 272.988C372.822 253.271 448.146 200.874 491.535 129.864C528.298 69.8014 478.534 -6.19229 408.512 1.25251Z" fill="white" />
    </mask>
    <g mask="url(#mask0_1_30417)">
        <path d="M408.512 1.25251C314.759 11.221 181.878 29.8014 63.3542 62.7351C-2.97619 81.1894 -20.8999 166.363 31.609 210.905C87.7153 258.508 171.685 298.603 285.381 272.988C372.822 253.271 448.146 200.874 491.535 129.864C528.298 69.8014 478.534 -6.19229 408.512 1.25251Z" fill="white" />
        <path d="M352.216 -89L270.897 190.464C264.365 212.924 232.809 213.65 225.267 191.505L152.752 -20.4827" fill="black" />
    </g>
</svg>